<svg width="39" height="36" viewBox="0 0 39 36" fill="none" xmlns="http://www.w3.org/2000/svg">
<path d="M30.0119 15.4403C29.5065 15.9487 29.1196 16.5623 28.8785 17.2372C28.6375 17.9123 28.5483 18.6322 28.6172 19.3456L28.5932 19.3216C28.6641 20.1615 28.5508 21.0066 28.2613 21.7982C27.9719 22.5896 27.5132 23.3084 26.9173 23.9044C26.3213 24.5003 25.6025 24.9591 24.8109 25.2484C24.0195 25.5379 23.1743 25.6512 22.3345 25.5803L22.3585 25.6043C21.354 25.5108 20.3451 25.7294 19.4692 26.2303C18.5935 26.7312 17.8935 27.49 17.4648 28.4034C17.0361 29.3167 16.8995 30.3399 17.0736 31.3338C17.2479 32.3275 17.7243 33.2434 18.438 33.9564C19.1517 34.6695 20.068 35.1451 21.0619 35.3183C22.0559 35.4916 23.0789 35.354 23.9919 34.9246C24.9048 34.495 25.6629 33.7944 26.1631 32.9182C26.6632 32.0419 26.8809 31.0328 26.7865 30.0283L26.8119 30.0523C26.7409 29.2126 26.8541 28.3674 27.1436 27.5758C27.4331 26.7843 27.8919 26.0655 28.4877 25.4695C29.0837 24.8736 29.8025 24.4148 30.594 24.1255C31.3856 23.836 32.2307 23.7227 33.0705 23.7936L33.0452 23.7696C33.8657 23.8434 34.6917 23.7088 35.4465 23.3784C36.2012 23.048 36.8604 22.5324 37.3628 21.8795C37.8652 21.2266 38.1948 20.4572 38.3207 19.6431C38.4467 18.8288 38.3651 17.996 38.0835 17.2216C37.8019 16.4474 37.3293 15.7567 36.7097 15.2136C36.0901 14.6706 35.3435 14.2927 34.5389 14.1151C33.7344 13.9375 32.898 13.9658 32.1073 14.1974C31.3167 14.4291 30.5973 14.8566 30.0159 15.4403H30.0119Z" fill="#394149"/>
<path d="M13.0119 1.44032C12.5065 1.94872 12.1196 2.56232 11.8785 3.23725C11.6375 3.91232 11.5483 4.63218 11.6172 5.34565L11.5932 5.32165C11.6641 6.16151 11.5508 7.00658 11.2613 7.79818C10.9719 8.58965 10.5132 9.30845 9.91733 9.90445C9.32133 10.5003 8.60252 10.9591 7.81092 11.2484C7.01946 11.5379 6.17426 11.6512 5.33452 11.5803L5.35853 11.6043C4.35399 11.5108 3.34506 11.7294 2.46919 12.2303C1.59346 12.7312 0.893458 13.49 0.464791 14.4034C0.0361247 15.3167 -0.100543 16.3399 0.0735903 17.3338C0.247857 18.3275 0.724257 19.2434 1.43799 19.9564C2.15172 20.6695 3.06799 21.1451 4.06186 21.3183C5.05586 21.4916 6.07892 21.354 6.99186 20.9246C7.90479 20.495 8.66292 19.7944 9.16306 18.9182C9.66319 18.0419 9.88092 17.0328 9.78652 16.0283L9.81186 16.0523C9.74092 15.2126 9.85412 14.3674 10.1436 13.5758C10.4331 12.7843 10.8919 12.0655 11.4877 11.4695C12.0837 10.8736 12.8025 10.4148 13.594 10.1255C14.3856 9.83605 15.2307 9.72271 16.0705 9.79365L16.0452 9.76965C16.8657 9.84338 17.6917 9.70885 18.4465 9.37845C19.2012 9.04805 19.8604 8.53245 20.3628 7.87951C20.8652 7.22658 21.1948 6.45725 21.3207 5.64311C21.4467 4.82885 21.3651 3.99605 21.0835 3.22165C20.8019 2.44738 20.3293 1.75672 19.7097 1.21365C19.0901 0.670582 18.3435 0.292715 17.5389 0.115115C16.7344 -0.0624849 15.898 -0.0342184 15.1073 0.197382C14.3167 0.429115 13.5973 0.856582 13.0159 1.44032H13.0119Z" fill="#394149"/>
<path d="M18.0705 23.3679L18.0452 23.3439C18.7589 23.4157 19.4797 23.3281 20.1556 23.0873C20.8313 22.8465 21.4452 22.4587 21.9527 21.9516C22.46 21.4445 22.8485 20.8309 23.0897 20.1553C23.3311 19.4797 23.4192 18.7591 23.3479 18.0452L23.3732 18.0692C23.3023 17.2293 23.4156 16.3843 23.7049 15.5927C23.9944 14.8012 24.4532 14.0824 25.0491 13.4864C25.6451 12.8905 26.3639 12.4317 27.1553 12.1424C27.9469 11.8529 28.792 11.7396 29.6319 11.8105L29.6065 11.7865C30.6112 11.8809 31.6204 11.663 32.4967 11.1627C33.3731 10.6623 34.0736 9.90381 34.5029 8.99065C34.9323 8.07751 35.0695 7.05413 34.8959 6.06012C34.7223 5.06611 34.2463 4.14987 33.5327 3.43635C32.8192 2.72284 31.9029 2.24678 30.9089 2.07316C29.9149 1.89952 28.8916 2.03673 27.9784 2.46609C27.0652 2.89544 26.3068 3.59604 25.8064 4.47232C25.306 5.34859 25.0881 6.35788 25.1825 7.36252L25.1585 7.33719C25.2296 8.17704 25.1165 9.02229 24.8272 9.81392C24.5379 10.6055 24.0791 11.3245 23.4832 11.9205C22.8872 12.5164 22.1683 12.9752 21.3767 13.2645C20.5849 13.5539 19.7397 13.6669 18.8999 13.5959L18.9239 13.6212C18.2101 13.5493 17.4892 13.6369 16.8135 13.8777C16.1377 14.1184 15.5239 14.5064 15.0164 15.0135C14.5089 15.5205 14.1205 16.1341 13.8792 16.8097C13.638 17.4853 13.5499 18.206 13.6212 18.9199L13.5972 18.8959C13.6679 19.7356 13.5544 20.5807 13.2649 21.3721C12.9753 22.1635 12.5167 22.8823 11.9208 23.4781C11.3249 24.074 10.6062 24.5327 9.81474 24.8223C9.02333 25.1117 8.17828 25.2252 7.33853 25.1545L7.36253 25.1785C6.35789 25.0841 5.3486 25.302 4.47232 25.8024C3.59605 26.3028 2.89545 27.0612 2.4661 27.9744C2.03674 28.8876 1.89952 29.9109 2.07316 30.9049C2.2468 31.8989 2.72285 32.8152 3.43636 33.5287C4.14988 34.2423 5.06612 34.7183 6.06013 34.8919C7.05414 35.0655 8.07752 34.9283 8.99068 34.4989C9.90382 34.0696 10.6623 33.3691 11.1627 32.4928C11.6631 31.6164 11.8809 30.6072 11.7865 29.6025L11.8119 29.6265C11.7409 28.7867 11.8543 27.9416 12.1437 27.15C12.4331 26.3585 12.8919 25.6397 13.4877 25.0437C14.0837 24.4479 14.8025 23.9891 15.594 23.6997C16.3856 23.4103 17.2307 23.2969 18.0705 23.3679Z" fill="#5E3BEE"/>
</svg>
